<?xml version="1.0" encoding="UTF-8" standalone="no"?><!-- Generator: Gravit.io --><svg xmlns="http://www.w3.org/2000/svg" xmlns:xlink="http://www.w3.org/1999/xlink" style="isolation:isolate" viewBox="0 0 128 128" width="128pt" height="128pt"><defs><clipPath id="_clipPath_Sq89c90wVfkvETja0jv8px1hvsIGdm3m"><rect width="128" height="128"/></clipPath></defs><g clip-path="url(#_clipPath_Sq89c90wVfkvETja0jv8px1hvsIGdm3m)"><rect width="128" height="128" style="fill:rgb(47,47,47)" fill-opacity="0"/><path d=" M 112 101.333 L 112 26.667 C 112 20.8 107.2 16 101.333 16 L 26.667 16 C 20.8 16 16 20.8 16 26.667 L 16 101.333 C 16 107.2 20.8 112 26.667 112 L 101.333 112 C 107.2 112 112 107.2 112 101.333 Z  M 25 40.48 L 29.68 40.48 L 29.68 35.02 L 34.36 35.02 L 34.36 40.48 L 44.5 40.48 L 44.5 45.16 L 49.18 45.16 L 49.18 30.34 L 53.86 30.34 L 53.86 40.48 L 59.32 40.48 L 59.32 35.02 L 64 35.02 L 64 45.16 L 68.68 45.16 L 68.68 40.48 L 73.36 40.48 L 73.36 45.16 L 78.82 45.16 L 78.82 40.48 L 83.5 40.48 L 83.5 35.02 L 88.18 35.02 L 88.18 40.48 L 98.32 40.48 L 98.32 35.02 L 103 35.02 L 103 103.66 L 25 103.66 L 25 40.48 Z " fill-rule="evenodd" fill="rgb(255,255,255)"/></g></svg>