<?xml version="1.0" encoding="UTF-8" standalone="no"?><!-- Generator: Gravit.io --><svg xmlns="http://www.w3.org/2000/svg" xmlns:xlink="http://www.w3.org/1999/xlink" style="isolation:isolate" viewBox="0 0 128 128" width="128pt" height="128pt"><defs><clipPath id="_clipPath_sQ8zqo8LcaQdHXoofKZB5ewQAYHctAVL"><rect width="128" height="128"/></clipPath></defs><g clip-path="url(#_clipPath_sQ8zqo8LcaQdHXoofKZB5ewQAYHctAVL)"><rect width="128" height="128" style="fill:rgb(47,47,47)" fill-opacity="0"/><path d=" M 0 64 C 0 28.677 28.677 0 64 0 C 99.323 0 128 28.677 128 64 C 128 99.323 99.323 128 64 128 C 28.677 128 0 99.323 0 64 Z  M 106.683 64 C 106.492 58.846 102.165 54.821 96.994 54.996 C 94.703 55.075 92.524 56.014 90.87 57.589 C 83.583 52.625 75.025 49.905 66.227 49.714 L 70.379 29.749 L 84.077 32.628 C 84.458 36.144 87.608 38.69 91.124 38.308 C 94.64 37.926 97.185 34.776 96.803 31.26 C 96.422 27.744 93.272 25.199 89.756 25.581 C 87.736 25.788 85.922 26.965 84.92 28.715 L 69.234 25.581 C 68.168 25.342 67.102 26.01 66.864 27.092 C 66.864 27.108 66.864 27.108 66.864 27.124 L 62.139 49.332 C 53.23 49.476 44.56 52.212 37.178 57.207 C 33.424 53.675 27.506 53.85 23.974 57.621 C 20.442 61.375 20.617 67.293 24.388 70.825 C 25.12 71.509 25.963 72.097 26.901 72.511 C 26.838 73.45 26.838 74.388 26.901 75.327 C 26.901 89.66 43.605 101.321 64.207 101.321 C 84.808 101.321 101.512 89.676 101.512 75.327 C 101.576 74.388 101.576 73.45 101.512 72.511 C 104.726 70.904 106.746 67.595 106.683 64 Z  M 42.683 70.411 C 42.683 66.879 45.562 64 49.094 64 C 52.625 64 55.505 66.879 55.505 70.411 C 55.505 73.943 52.625 76.822 49.094 76.822 C 45.546 76.79 42.683 73.943 42.683 70.411 Z  M 79.861 88.006 C 75.311 91.426 69.743 93.176 64.048 92.938 C 58.352 93.176 52.784 91.426 48.235 88.006 C 47.63 87.274 47.741 86.176 48.473 85.572 C 49.11 85.047 50.016 85.047 50.669 85.572 C 54.519 88.388 59.212 89.82 63.984 89.597 C 68.757 89.851 73.466 88.483 77.363 85.699 C 78.063 85.015 79.209 85.031 79.893 85.731 C 80.577 86.431 80.561 87.576 79.861 88.26 L 79.861 88.26 L 79.861 88.006 L 79.861 88.006 Z  M 78.715 77.045 C 75.184 77.045 72.304 74.166 72.304 70.634 C 72.304 67.102 75.184 64.223 78.715 64.223 C 82.247 64.223 85.127 67.102 85.127 70.634 C 85.27 74.166 82.518 77.14 78.986 77.284 C 78.874 77.284 78.779 77.284 78.668 77.284 L 78.715 77.045 Z " fill-rule="evenodd" fill="rgb(255,255,255)"/></g></svg>