<?xml version="1.0" encoding="UTF-8" standalone="no"?><!-- Generator: Gravit.io --><svg xmlns="http://www.w3.org/2000/svg" xmlns:xlink="http://www.w3.org/1999/xlink" style="isolation:isolate" viewBox="0 0 128 128" width="128pt" height="128pt"><defs><clipPath id="_clipPath_dPDREXuxMTanvOe0JFBhYmh4flUw7DS8"><rect width="128" height="128"/></clipPath></defs><g clip-path="url(#_clipPath_dPDREXuxMTanvOe0JFBhYmh4flUw7DS8)"><g style="isolation:isolate"><path d="M 53.479 89.5 L 113.95 89.5 C 113.95 89.5 113.95 89.5 113.95 89.5 L 113.95 122.443 C 113.95 125.234 111.684 127.5 108.893 127.5 L 76.126 127.5 C 61.127 127.5 48.95 115.323 48.95 100.324 L 48.95 94.029 C 48.95 91.53 50.98 89.5 53.479 89.5 Z" style="stroke:none;fill:#000000;stroke-miterlimit:10;"/><path d="M 100.562 42.5 L 109.338 42.5 C 111.884 42.5 113.95 44.566 113.95 47.112 L 113.95 92.5 L 95.95 92.5 L 95.95 47.112 C 95.95 44.566 98.016 42.5 100.562 42.5 Z" style="stroke:none;fill:#000000;stroke-miterlimit:10;"/></g><g style="isolation:isolate"><path d="M 15.103 31.794 L 17.018 30.82 C 17.965 30.337 19.127 30.715 19.609 31.663 L 25.89 43.998 L 20.541 46.72 L 14.26 34.384 C 13.777 33.437 14.155 32.276 15.103 31.794 Z" style="stroke:none;fill:#000000;stroke-miterlimit:10;"/><path d=" M 41.946 119.5 L 37.946 80.5 L 80.946 80.5" fill="none" vector-effect="non-scaling-stroke" stroke-width="15" stroke="rgb(0,0,0)" stroke-linejoin="round" stroke-linecap="round" stroke-miterlimit="3"/><path d=" M 63.946 36.5 L 46.946 66.5 L 24.968 47.5" fill="none" vector-effect="non-scaling-stroke" stroke-width="12" stroke-dasharray="0,0,0" stroke="rgb(0,0,0)" stroke-linejoin="round" stroke-linecap="round" stroke-miterlimit="3"/><circle vector-effect="non-scaling-stroke" cx="62.445662256376565" cy="13" r="12.5" fill="rgb(0,0,0)"/><line x1="80.946" y1="77.5" x2="67.946" y2="36.5" vector-effect="non-scaling-stroke" stroke-width="20" stroke="rgb(0,0,0)" stroke-linejoin="round" stroke-linecap="round" stroke-miterlimit="3"/></g></g></svg>